<?xml version="1.0" standalone="no"?><!DOCTYPE svg PUBLIC "-//W3C//DTD SVG 1.1//EN" "http://www.w3.org/Graphics/SVG/1.1/DTD/svg11.dtd"><svg t="1755136984278" class="icon" viewBox="0 0 1024 1024" version="1.1" xmlns="http://www.w3.org/2000/svg" p-id="15095" xmlns:xlink="http://www.w3.org/1999/xlink" width="200" height="200"><path d="M896 339.2V128h-83.2v83.2c-76.8-76.8-179.2-128-300.8-128-166.4 0-313.6 96-384 236.8-6.4 25.6 0 51.2 19.2 57.6 19.2 12.8 44.8 0 57.6-19.2 57.6-115.2 172.8-192 307.2-192 108.8 0 204.8 51.2 262.4 128h-108.8V384H896v-44.8z m-76.8 326.4c12.8-19.2 38.4-32 57.6-19.2 19.2 12.8 32 38.4 19.2 57.6-70.4 140.8-217.6 236.8-384 236.8-115.2 0-224-44.8-300.8-121.6V896H128v-256H364.8v83.2H249.6c64 76.8 153.6 128 262.4 128 134.4 0 249.6-76.8 307.2-185.6z" fill="#ffffff" p-id="15096"></path></svg>